<?xml version="1.0" encoding="utf-8"?>
<!-- Generator: Adobe Illustrator 25.4.1, SVG Export Plug-In . SVG Version: 6.00 Build 0)  -->
<svg version="1.1" id="Layer_1" xmlns="http://www.w3.org/2000/svg" xmlns:xlink="http://www.w3.org/1999/xlink" x="0px" y="0px"
	 viewBox="0 0 800 800" style="enable-background:new 0 0 800 800;" xml:space="preserve">
<style type="text/css">
	.st0{fill-rule:evenodd;clip-rule:evenodd;}
</style>
<g>
	<path d="M470.5,288.3l4.3-4.3l8.6,8.6c-2.6,2.6-5.4,5.4-8.6,8.6c-9.5,9.5-9.5,24.9,0,34.4c3.1,3.1,6.1,6.1,8.6,8.6L191.2,636.3
		c-2.5-2.5-5.4-5.4-8.6-8.6c-9.5-9.5-24.9-9.5-34.4,0c-2.7,2.7-5.7,5.7-8.6,8.6l-8.6-8.6l4.3-4.3c2.4-2.4,2.4-6.2,0-8.6
		c-2.4-2.4-6.2-2.4-8.6,0l-4.3,4.3l-8.6-8.6l4.3-4.3c2.4-2.4,2.4-6.2,0-8.6c-2.4-2.4-6.2-2.4-8.6,0l-4.3,4.3l-8.6-8.6l4.3-4.3
		c2.4-2.4,2.4-6.2,0-8.6c-2.4-2.4-6.2-2.4-8.6,0l-4.3,4.3l-8.6-8.6l4.3-4.3c2.4-2.4,2.4-6.2,0-8.6c-2.4-2.4-6.2-2.4-8.6,0l-4.3,4.3
		l-8.6-8.6l4.3-4.3c2.4-2.4,2.4-6.2,0-8.6c-2.4-2.4-6.2-2.4-8.6,0l-4.3,4.3l-8.6-8.6l4.3-4.3c2.4-2.4,2.4-6.2,0-8.6
		c-2.4-2.4-6.2-2.4-8.6,0l-4.3,4.3l-8.6-8.6l4.3-4.3c2.4-2.4,2.4-6.2,0-8.6c-2.4-2.4-6.2-2.4-8.6,0l-4.3,4.3l-8.6-8.6
		c2.6-2.6,5.4-5.4,8.6-8.6c9.5-9.5,9.5-24.9,0-34.4c-3.1-3.1-6.1-6.1-8.6-8.6l292.1-292.1c2.5,2.5,5.4,5.4,8.6,8.6
		c9.5,9.5,24.9,9.5,34.4,0c3.2-3.2,6-6,8.6-8.6l8.6,8.6l-4.3,4.3c-2.4,2.4-2.4,6.2,0,8.6c2.4,2.4,6.2,2.4,8.6,0l4.3-4.3l8.6,8.6
		l-4.3,4.3c-2.4,2.4-2.4,6.2,0,8.6c2.4,2.4,6.2,2.4,8.6,0l4.3-4.3l8.6,8.6l-4.3,4.3c-2.4,2.4-2.4,6.2,0,8.6c2.4,2.4,6.2,2.4,8.6,0
		l4.3-4.3l8.6,8.6l-4.3,4.3c-2.4,2.4-2.4,6.2,0,8.6c2.4,2.4,6.2,2.4,8.6,0l4.3-4.3l8.6,8.6l-4.3,4.3c-2.4,2.4-2.4,6.2,0,8.6
		c2.4,2.4,6.2,2.4,8.6,0l4.3-4.3l8.6,8.6l-4.3,4.3c-2.4,2.4-2.4,6.2,0,8.6s6.2,2.4,8.6,0l4.3-4.3l8.6,8.6l-4.3,4.3
		c-2.4,2.4-2.4,6.2,0,8.6C464.2,290.7,468.1,290.7,470.5,288.3z M337.3,215.3c-9.5-9.5-24.9-9.5-34.4,0L62.4,455.8
		c-9.5,9.5-9.5,24.9,0,34.4l94.5,94.5c9.5,9.5,24.9,9.5,34.4,0l240.6-240.6c9.5-9.5,9.5-24.9,0-34.4L337.3,215.3z M423.2,335.6
		L182.6,576.1c-4.8,4.8-12.4,4.7-17.2,0L71,481.6c-4.8-4.8-4.8-12.4,0-17.2l240.6-240.6c4.7-4.7,12.4-4.8,17.2,0l94.5,94.5
		C427.9,323.1,427.9,330.8,423.2,335.6z M151.5,452.4l-34.1,34.1l5.1,5.1l14.2-14.2l38,38l5.7-5.7l-38-38l14.2-14.2L151.5,452.4
		L151.5,452.4z M163.4,440.6l-5.7,5.7l43.1,43.1l5.7-5.7L163.4,440.6z M193.4,436.3c-1.8-3.6-2.3-7.3-1.7-11.1
		c0.6-3.8,2.6-7.4,5.9-10.7c2.9-2.9,6-4.6,9.3-5c3.3-0.5,7.1,0.4,11.2,2.5l4.3-6.9c-5.1-2.8-10.2-3.9-15.4-3.1
		c-5.1,0.7-9.9,3.3-14.2,7.6c-3.8,3.8-6.4,8.1-7.8,13c-1.4,4.9-1.3,9.9,0.3,14.9c1.6,5.1,4.7,9.8,9.2,14.3c4.1,4.1,8.7,7.2,13.8,9.3
		s10.1,2.6,14.8,1.6c4.8-1,9.5-3.8,14.2-8.5c4.5-4.5,7-9.5,7.7-15.1c0.6-5.6-0.8-11.3-4.3-17.1l-7.1,4.3c2.8,4.4,4.1,8.6,3.7,12.7
		c-0.4,4.1-2.1,7.7-5.3,10.9c-2.6,2.6-5.7,4.4-9.3,5.3s-7.3,0.5-11.1-1.2c-3.8-1.7-7.5-4.3-11.2-8
		C197.5,443.1,195.1,439.9,193.4,436.3L193.4,436.3z M254.4,349.5l-7.7,7.7l-0.1,42.7l-21.3-21.3l-5.7,5.7l43.1,43.1l5.7-5.7
		l-14.9-14.9l0.2-13.9l37.1,6.4l7.5-7.5l-44.5-6.7L254.4,349.5L254.4,349.5z M331.7,348.2l-26.4,26.4L290.6,360l23.8-23.8l-5.1-5.1
		l-23.8,23.8l-13.2-13.2l25.4-25.4l-5.1-5.1l-31.1,31.1l43.1,43.1l32.1-32.1L331.7,348.2z M334,270l-34.1,34.1l5.1,5.1l14.2-14.2
		l38,38l5.7-5.7l-38-38L339,275L334,270L334,270z"/>
	<path class="st0" d="M588.8,247.7c-6.5,0-11.7,5.2-11.7,11.7c0,6.5,5.2,11.7,11.7,11.7h175.7v257.7H588.8
		c-6.5,0-11.7,5.2-11.7,11.7c0,6.5,5.2,11.7,11.7,11.7h175.7c12.9,0,23.4-10.5,23.4-23.4V271.1c0-12.9-10.5-23.4-23.4-23.4H588.8z
		 M638.1,339c-4.6-4.6-12-4.6-16.6,0c-4.6,4.6-4.6,12,0,16.6l32.7,32.7H495.1c-6.5,0-11.7,5.2-11.7,11.7s5.2,11.7,11.7,11.7h159.2
		l-32.7,32.7c-4.6,4.6-4.6,12,0,16.6c4.6,4.6,12,4.6,16.6,0l52.7-52.7c4.6-4.6,4.6-12,0-16.6L638.1,339z"/>
</g>
</svg>
